<svg width="29" height="29" viewBox="0 0 29 29" fill="none" xmlns="http://www.w3.org/2000/svg">
<path d="M15.3204 4.78496C15.9004 5.64288 16.2387 6.66996 16.2387 7.78163C16.2267 10.6816 13.9429 13.0379 11.0671 13.1345C10.9462 13.1225 10.8012 13.1225 10.6683 13.1345C9.2814 13.0875 7.96726 12.5024 7.0042 11.5032C6.04115 10.5041 5.5048 9.16934 5.50873 7.78163C5.50873 4.82121 7.90123 2.41663 10.8737 2.41663M19.8299 4.83329C22.1741 4.83329 24.0591 6.73038 24.0591 9.06246C24.0591 11.3462 22.2466 13.207 19.987 13.2916C19.8826 13.2795 19.7772 13.2795 19.6728 13.2916M22.1608 24.1666C23.0308 23.9854 23.8524 23.635 24.5291 23.1154C26.4141 21.7016 26.4141 19.3695 24.5291 17.9558C23.8645 17.4483 23.0549 17.11 22.197 16.9166M5.0254 17.5933C2.10123 19.5508 2.10123 22.7408 5.0254 24.6862C8.34832 26.9095 13.7979 26.9095 17.1208 24.6862C20.045 22.7287 20.045 19.5387 17.1208 17.5933C13.81 15.382 8.3604 15.382 5.0254 17.5933V17.5933Z" stroke="#C7C7C7" stroke-width="1.5" stroke-linecap="round" stroke-linejoin="round"/>
</svg>
