<svg width="40" height="40" viewBox="0 0 40 40" fill="none" xmlns="http://www.w3.org/2000/svg">
<path d="M20 0C16.0444 0 12.1776 1.17298 8.8886 3.37061C5.59962 5.56824 3.03617 8.69181 1.52242 12.3463C0.00866568 16.0009 -0.387401 20.0222 0.384303 23.9018C1.15601 27.7814 3.06082 31.3451 5.85787 34.1421C8.65492 36.9392 12.2186 38.844 16.0982 39.6157C19.9778 40.3874 23.9992 39.9913 27.6537 38.4776C31.3082 36.9638 34.4318 34.4004 36.6294 31.1114C38.827 27.8224 40 23.9556 40 20C40 17.3736 39.4827 14.7728 38.4776 12.3463C37.4725 9.91982 35.9993 7.71504 34.1421 5.85786C32.285 4.00069 30.0802 2.5275 27.6537 1.52241C25.2272 0.517315 22.6264 0 20 0V0ZM20 36C16.8355 36 13.7421 35.0616 11.1109 33.3035C8.4797 31.5454 6.42894 29.0465 5.21794 26.1229C4.00693 23.1993 3.69008 19.9822 4.30744 16.8786C4.92481 13.7749 6.44866 10.9239 8.6863 8.68629C10.9239 6.44865 13.7749 4.9248 16.8786 4.30744C19.9823 3.69007 23.1993 4.00693 26.1229 5.21793C29.0466 6.42893 31.5454 8.47969 33.3035 11.1109C35.0616 13.7421 36 16.8355 36 20C36 24.2435 34.3143 28.3131 31.3137 31.3137C28.3131 34.3143 24.2435 36 20 36V36Z" fill="#4B5674" fill-opacity="0.59"/>
<path d="M20 8.00001C18.1435 8.00001 16.363 8.73751 15.0503 10.0503C13.7375 11.363 13 13.1435 13 15C13 15.5304 13.2107 16.0392 13.5858 16.4142C13.9609 16.7893 14.4696 17 15 17C15.5305 17 16.0392 16.7893 16.4142 16.4142C16.7893 16.0392 17 15.5304 17 15C17 14.4067 17.176 13.8266 17.5056 13.3333C17.8353 12.84 18.3038 12.4554 18.852 12.2284C19.4002 12.0013 20.0034 11.9419 20.5853 12.0577C21.1672 12.1734 21.7018 12.4591 22.1214 12.8787C22.5409 13.2982 22.8266 13.8328 22.9424 14.4147C23.0581 14.9967 22.9987 15.5999 22.7717 16.1481C22.5446 16.6962 22.1601 17.1648 21.6667 17.4944C21.1734 17.8241 20.5934 18 20 18C19.4696 18 18.9609 18.2107 18.5858 18.5858C18.2107 18.9609 18 19.4696 18 20V24C18 24.5304 18.2107 25.0392 18.5858 25.4142C18.9609 25.7893 19.4696 26 20 26C20.5305 26 21.0392 25.7893 21.4142 25.4142C21.7893 25.0392 22 24.5304 22 24V21.68C23.6162 21.208 25.0074 20.1677 25.917 18.7509C26.8267 17.334 27.1935 15.6361 26.9499 13.9701C26.7064 12.3041 25.8688 10.7823 24.5916 9.68519C23.3144 8.58806 21.6837 7.98956 20 8.00001V8.00001Z" fill="#4B5674" fill-opacity="0.59"/>
<path d="M20 32.0001C21.1046 32.0001 22 31.1046 22 30.0001C22 28.8955 21.1046 28.0001 20 28.0001C18.8954 28.0001 18 28.8955 18 30.0001C18 31.1046 18.8954 32.0001 20 32.0001Z" fill="#4B5674" fill-opacity="0.59"/>
</svg>
