<svg width="29" height="29" viewBox="0 0 29 29" fill="none" xmlns="http://www.w3.org/2000/svg">
<path d="M2.41663 15.5029V18.125C2.41663 24.1666 4.83329 26.5833 10.875 26.5833H18.125C24.1666 26.5833 26.5833 24.1666 26.5833 18.125V10.875C26.5833 4.83329 24.1666 2.41663 18.125 2.41663H10.875C4.83329 2.41663 2.41663 4.83329 2.41663 10.875" stroke="#C7C7C7" stroke-width="1.5" stroke-linecap="round" stroke-linejoin="round"/>
<path d="M12.2163 13.4753H9.01422C8.25297 13.4753 7.63672 14.0916 7.63672 14.8528V21.0395H12.2163V13.4753Z" stroke="#C7C7C7" stroke-width="1.5" stroke-miterlimit="10" stroke-linecap="round" stroke-linejoin="round"/>
<path d="M15.4207 7.97742H13.584C12.8228 7.97742 12.2065 8.59367 12.2065 9.35492V21.0274H16.7861V9.35492C16.7861 8.59367 16.182 7.97742 15.4207 7.97742V7.97742ZM19.9955 15.5295H16.7934V21.0274H21.373V16.907C21.3609 16.1457 20.7446 15.5295 19.9955 15.5295Z" stroke="#C7C7C7" stroke-width="1.5" stroke-miterlimit="10" stroke-linecap="round" stroke-linejoin="round"/>
</svg>
