<svg width="29" height="29" viewBox="0 0 29 29" fill="none" xmlns="http://www.w3.org/2000/svg">
<path d="M9.66667 2.41667V6.04167M19.3333 2.41667V6.04167M4.22917 10.9838H24.7708M23.2133 19.053L18.9358 23.3305C18.7666 23.4997 18.6095 23.8138 18.5733 24.0434L18.3437 25.6747C18.2591 26.2668 18.67 26.6776 19.262 26.593L20.8933 26.3634C21.1229 26.3272 21.4491 26.1701 21.6062 26.0009L25.8837 21.7234C26.6208 20.9863 26.9712 20.1284 25.8837 19.0409C24.8083 17.9655 23.9504 18.3159 23.2133 19.053Z" stroke="#ACB9C8" stroke-width="1.5" stroke-miterlimit="10" stroke-linecap="round" stroke-linejoin="round"/>
<path d="M22.5958 19.6729C22.9583 20.9779 23.9733 21.9929 25.2783 22.3554M3.625 15.805V10.2708C3.625 6.64584 5.4375 4.22917 9.66667 4.22917H19.3333C23.5625 4.22917 25.375 6.64584 25.375 10.2708V14.5M14.5 26.5833H9.66667C5.4375 26.5833 3.625 24.1667 3.625 20.5417" stroke="#ACB9C8" stroke-width="1.5" stroke-miterlimit="10" stroke-linecap="round" stroke-linejoin="round"/>
<path d="M14.494 16.5542H14.5048M10.0231 16.5542H10.0352M10.0231 20.1792H10.0352" stroke="#ACB9C8" stroke-width="2" stroke-linecap="round" stroke-linejoin="round"/>
</svg>
