<svg width="18" height="18" viewBox="0 0 18 18" fill="none" xmlns="http://www.w3.org/2000/svg">
<path d="M11.265 2.25749C10.6142 1.7621 9.81788 1.49578 9 1.49999C6.93 1.49999 5.25 3.17999 5.25 5.24999C5.25 7.31999 6.93 8.99999 9 8.99999C11.07 8.99999 12.75 7.31999 12.75 5.24999M2.5575 16.5C2.5575 13.5975 5.445 11.25 9 11.25C9.72 11.25 10.4175 11.3475 11.07 11.5275" stroke="#ACB9C8" stroke-width="1.5" stroke-linecap="round" stroke-linejoin="round"/>
<path d="M14.274 12.7058L12.6915 14.2883M12.7058 12.72L14.2958 14.3025M16.5 13.5C16.5 13.74 16.47 13.9725 16.41 14.1975C16.3425 14.4975 16.2225 14.79 16.065 15.045C15.8006 15.4894 15.425 15.8572 14.9753 16.1123C14.5255 16.3675 14.0171 16.5011 13.5 16.5C12.7616 16.5022 12.0494 16.2264 11.505 15.7275C11.28 15.5325 11.085 15.3 10.935 15.045C10.6495 14.5803 10.4989 14.0454 10.5 13.5C10.4995 13.1059 10.5768 12.7156 10.7274 12.3514C10.878 11.9872 11.0989 11.6563 11.3776 11.3776C11.6563 11.0989 11.9872 10.8779 12.3514 10.7274C12.7156 10.5768 13.1059 10.4995 13.5 10.5C14.385 10.5 15.1875 10.8825 15.7275 11.4975C16.2075 12.03 16.5 12.735 16.5 13.5Z" stroke="#ACB9C8" stroke-width="1.5" stroke-miterlimit="10" stroke-linecap="round" stroke-linejoin="round"/>
</svg>
