<svg width="26" height="26" viewBox="0 0 26 26" fill="none" xmlns="http://www.w3.org/2000/svg">
<path d="M16.2718 3.26074C15.3318 2.54518 14.1815 2.16049 13.0002 2.16657C10.0102 2.16657 7.5835 4.59324 7.5835 7.58324C7.5835 10.5732 10.0102 12.9999 13.0002 12.9999C15.9902 12.9999 18.4168 10.5732 18.4168 7.58324" stroke="#4B5674" stroke-width="1.5" stroke-linecap="round" stroke-linejoin="round"/>
<path d="M20.8118 17.0527L16.9768 20.8877C16.8251 21.0393 16.6843 21.321 16.6518 21.5268L16.4459 22.9893C16.3701 23.5202 16.7384 23.8885 17.2693 23.8127L18.7318 23.6068C18.9376 23.5743 19.2301 23.4335 19.3709 23.2818L23.2059 19.4468C23.8668 18.786 24.1809 18.0168 23.2059 17.0418C22.2418 16.0777 21.4726 16.3918 20.8118 17.0527Z" stroke="#4B5674" stroke-width="1.5" stroke-miterlimit="10" stroke-linecap="round" stroke-linejoin="round"/>
<path d="M20.2583 17.6042C20.5833 18.7742 21.4933 19.6842 22.6633 20.0092" stroke="#4B5674" stroke-width="1.5" stroke-miterlimit="10" stroke-linecap="round" stroke-linejoin="round"/>
<path d="M3.69434 23.8333C3.69434 19.6408 7.86517 16.25 13.0002 16.25C14.1268 16.25 15.2102 16.4125 16.2177 16.7158" stroke="#4B5674" stroke-width="1.5" stroke-linecap="round" stroke-linejoin="round"/>
</svg>
